<?xml version="1.0" encoding="UTF-8"?>
<svg xmlns="http://www.w3.org/2000/svg" id="Layer_1" data-name="Layer 1" viewBox="0 0 24 24">
  <path d="M20,7H11V.326L.763,10.163c-.492,.49-.763,1.143-.763,1.837,0,.694,.271,1.346,.764,1.835l10.236,9.839v-6.674h9V7Zm-1,9H10v5.326L1.466,13.123c-.3-.3-.466-.699-.466-1.124s.166-.828,.462-1.123L10,2.674v5.326h9v8ZM24,2.5V21.5c0,1.378-1.121,2.5-2.5,2.5h-6.5v-1h6.5c.827,0,1.5-.673,1.5-1.5V2.5c0-.827-.673-1.5-1.5-1.5h-6.5V0h6.5c1.379,0,2.5,1.122,2.5,2.5Z"/>
</svg>
