<?xml version="1.0" encoding="UTF-8"?>
<svg xmlns="http://www.w3.org/2000/svg" id="Layer_1" data-name="Layer 1" viewBox="0 0 24 24">
  <path d="M20.611,12.498c-.031-7.51-2.611-10.718-8.611-10.718C6.081,1.78,3.422,5.087,3.389,12.498c-1.383,.669-2.389,1.986-2.389,4.532,0,4.6,3.283,5.19,6.144,5.19,.216,0,.407-.138,.475-.343,1.035-3.125,1.035-6.568,0-9.694-.068-.205-.259-.343-.475-.343-.914,0-1.871,.06-2.75,.293,.14-8.205,3.732-9.353,7.607-9.353s7.467,1.148,7.607,9.353c-.879-.232-1.836-.293-2.75-.293-.216,0-.407,.138-.475,.343-1.034,3.126-1.034,6.568,0,9.694,.067,.205,.259,.343,.475,.343,2.86,0,6.144-.59,6.144-5.19,0-2.546-1.006-3.863-2.389-4.532ZM6.779,21.216c-3.432-.077-4.779-1.272-4.779-4.186s1.347-4.109,4.779-4.186c.821,2.713,.821,5.659,0,8.372Zm10.443,0c-.821-2.713-.821-5.659,0-8.372,3.432,.077,4.778,1.272,4.778,4.186s-1.347,4.109-4.778,4.186Z"/>
</svg>
