<?xml version="1.0" encoding="UTF-8"?>
<svg xmlns="http://www.w3.org/2000/svg" id="Layer_1" data-name="Layer 1" viewBox="0 0 24 24">
  <path d="M9.916,3.891c-.14-.059-3.461-1.427-7.796,.057-.23,.079-.424,.239-.545,.451-.135,.236-.575,1.231-.575,4.118,0,2.743,.406,3.685,.648,4.002,.07,.092,.155,.171,.252,.233,.203,.131,1.367,.784,4.413,.784,1.24,0,2.16-.101,2.834-.233-.028,.55-.072,1.104-.133,1.658-.217,1.995-1.71,3.552-3.63,3.787-.548,.066-.938,.565-.872,1.113,.062,.507,.493,.879,.991,.879,.041,0,.082-.002,.123-.008,2.847-.348,5.058-2.632,5.376-5.555,.12-1.096,.181-2.194,.181-3.266,0-4.14-.652-7.186-.68-7.313-.069-.317-.288-.581-.587-.708Z"/>
  <path d="M22.32,4.599c-.069-.317-.288-.581-.587-.708-.139-.059-3.461-1.427-7.796,.057-.23,.079-.424,.239-.545,.451-.135,.236-.575,1.231-.575,4.118,0,2.743,.406,3.685,.648,4.002,.07,.092,.155,.171,.252,.233,.203,.131,1.367,.784,4.413,.784,1.24,0,2.16-.101,2.834-.233-.028,.55-.072,1.104-.132,1.658-.218,1.995-1.711,3.552-3.631,3.787-.548,.066-.938,.565-.872,1.113,.062,.507,.493,.879,.991,.879,.041,0,.082-.002,.123-.008,2.847-.348,5.058-2.632,5.377-5.555,.12-1.098,.18-2.196,.18-3.266,0-4.14-.652-7.186-.68-7.313Z"/>
</svg>
