<?xml version="1.0" encoding="UTF-8" standalone="no"?>
<!-- Created with Inkscape (http://www.inkscape.org/) -->

<svg
   version="1.1"
   id="svg279"
   xml:space="preserve"
   width="32"
   height="32"
   viewBox="0 0 32 32"
   xmlns="http://www.w3.org/2000/svg"
   xmlns:svg="http://www.w3.org/2000/svg"><defs
     id="defs283"><clipPath
       clipPathUnits="userSpaceOnUse"
       id="clipPath301"><path
         d="M 0,24 H 24 V 0 H 0 Z"
         id="path299" /></clipPath></defs><g
     id="g285"
     transform="matrix(1.3333333,0,0,-1.3333333,0,32)"><g
       id="g287"
       transform="translate(16,10)"><path
         d="M 0,0 H -8"
         style="fill:none;stroke:#000000;stroke-width:2;stroke-linecap:round;stroke-linejoin:round;stroke-miterlimit:10;stroke-dasharray:none;stroke-opacity:1"
         id="path289" /></g><g
       id="g291"
       transform="translate(13,6)"><path
         d="M 0,0 H -5"
         style="fill:none;stroke:#000000;stroke-width:2;stroke-linecap:round;stroke-linejoin:round;stroke-miterlimit:10;stroke-dasharray:none;stroke-opacity:1"
         id="path293" /></g><g
       id="g295"><g
         id="g297"
         clip-path="url(#clipPath301)"><g
           id="g303"
           transform="translate(11.5146,23)"><path
             d="M 0,0 C 1.592,0 3.117,-0.632 4.243,-1.757 L 7.728,-5.243 C 8.854,-6.368 9.485,-7.894 9.485,-9.485 V -18 c 0,-2.209 -1.791,-4 -4,-4 h -10 c -2.209,0 -4,1.791 -4,4 v 14 c 0,2.209 1.791,4 4,4 z"
             style="fill:none;stroke:#000000;stroke-width:2;stroke-linecap:round;stroke-linejoin:round;stroke-miterlimit:10;stroke-dasharray:none;stroke-opacity:1"
             id="path305" /></g><g
           id="g307"
           transform="translate(13,22)"><path
             d="M 0,0 V -5 C 0,-6.104 0.896,-7 2,-7 H 7"
             style="fill:none;stroke:#000000;stroke-width:2;stroke-linecap:round;stroke-linejoin:round;stroke-miterlimit:10;stroke-dasharray:none;stroke-opacity:1"
             id="path309" /></g></g></g></g></svg>
